# Placeholder base head mesh (low poly ellipsoid)
v 0.000000 1.200000 0.000000
v 0.000000 -1.200000 0.000000
v 0.900000 0.600000 0.000000
v -0.900000 0.600000 0.000000
v 0.950000 0.000000 0.200000
v -0.950000 0.000000 0.200000
v 0.900000 -0.700000 0.050000
v -0.900000 -0.700000 0.050000
v 0.000000 0.500000 0.900000
v 0.000000 -0.300000 1.000000
v 0.000000 0.600000 -0.700000
v 0.000000 -0.700000 -0.600000

f 1 3 9
f 1 9 4
f 3 5 9
f 4 9 6
f 5 10 9
f 6 9 10
f 3 7 5
f 4 6 8
f 7 10 5
f 8 6 10
f 3 1 11
f 4 11 1
f 3 11 7
f 4 8 11
f 7 11 12
f 8 12 11
f 7 2 10
f 8 10 2
f 7 12 2
f 8 2 12
